<?xml version="1.0" standalone="no"?>
<!DOCTYPE svg PUBLIC "-//W3C//DTD SVG 20010904//EN"
 "http://www.w3.org/TR/2001/REC-SVG-20010904/DTD/svg10.dtd">
<svg version="1.0" xmlns="http://www.w3.org/2000/svg"
 width="512.000000pt" height="512.000000pt" viewBox="0 0 512.000000 512.000000"
 preserveAspectRatio="xMidYMid meet">
<metadata>
Created by potrace 1.11, written by Peter Selinger 2001-2013
</metadata>
<g transform="translate(0.000000,512.000000) scale(0.100000,-0.100000)"
fill="#000000" stroke="none">
<path d="M415 5110 c-202 -42 -367 -207 -405 -405 -8 -44 -10 -633 -8 -2180
l3 -2120 22 -59 c29 -75 57 -120 113 -180 58 -63 114 -100 197 -134 l68 -27
2110 -3 c1515 -2 2129 1 2177 8 179 30 327 154 399 335 l24 60 3 2110 c2 1514
-1 2129 -9 2177 -29 178 -159 333 -335 400 l-59 23 -2130 1 c-1172 1 -2148 -2
-2170 -6z m640 -1274 c18 -8 38 -23 43 -33 6 -10 164 -490 351 -1068 188 -577
343 -1050 344 -1052 2 -1 149 471 327 1050 352 1140 336 1098 414 1112 53 10
124 -18 140 -56 6 -15 156 -494 331 -1064 176 -569 322 -1035 325 -1035 3 0
158 471 345 1047 263 811 346 1054 366 1077 22 25 33 29 73 28 57 0 92 -28
102 -77 5 -26 -66 -252 -335 -1076 -187 -574 -363 -1116 -391 -1203 -63 -192
-80 -216 -160 -216 -75 0 -99 28 -142 166 -19 60 -166 535 -328 1056 -162 522
-298 948 -301 948 -3 0 -153 -476 -334 -1057 -367 -1180 -341 -1113 -434
-1113 -37 0 -56 6 -76 23 -21 18 -89 217 -415 1222 -215 660 -390 1214 -390
1232 0 19 10 43 25 62 22 26 35 32 78 40 4 0 23 -5 42 -13z"/>
</g>
</svg>
