<?xml version="1.0" standalone="no"?>
<!DOCTYPE svg PUBLIC "-//W3C//DTD SVG 20010904//EN"
 "http://www.w3.org/TR/2001/REC-SVG-20010904/DTD/svg10.dtd">
<svg version="1.0" xmlns="http://www.w3.org/2000/svg"
 width="500.000000pt" height="500.000000pt" viewBox="0 0 500.000000 500.000000"
 preserveAspectRatio="xMidYMid meet">
<metadata>
Created by potrace 1.11, written by Peter Selinger 2001-2013
</metadata>
<g transform="translate(0.000000,500.000000) scale(0.100000,-0.100000)"
fill="#000000" stroke="none">
<path d="M2651 3889 c-561 -59 -1070 -379 -1299 -818 -188 -359 -188 -749 0
-1111 270 -522 910 -854 1593 -827 558 22 1047 259 1341 650 278 369 331 822
144 1234 -35 78 -140 237 -199 305 l-41 46 122 109 c68 60 177 154 243 209 66
54 138 114 160 132 l40 33 -75 -7 c-159 -13 -322 -47 -742 -154 l-118 -30
-106 51 c-320 154 -691 216 -1063 178z"/>
</g>
</svg>
